<svg width="34" height="34" viewBox="0 0 34 34" fill="none" xmlns="http://www.w3.org/2000/svg">
<g id="Group 215">
<path id="Vector" d="M16.9999 3.0904e-06C13.6372 3.7013e-06 10.3501 0.997306 7.55421 2.86573C4.75837 4.73416 2.57945 7.38977 1.29307 10.4967C0.00669103 13.6036 -0.329371 17.0222 0.327405 20.3202C0.984181 23.6181 2.60429 26.6472 4.98279 29.0243C7.3613 31.4013 10.3914 33.0196 13.6897 33.6744C16.988 34.3292 20.4065 33.9911 23.5126 32.7029C26.6187 31.4146 29.2731 29.2341 31.1398 26.4371C33.0066 23.6401 34.0019 20.3524 33.9998 16.9897C33.9998 14.7577 33.56 12.5476 32.7056 10.4856C31.8511 8.42368 30.5988 6.55027 29.02 4.9725C27.4413 3.39473 25.5672 2.14354 23.5047 1.29033C21.4423 0.437125 19.2319 -0.0013431 16.9999 3.0904e-06ZM23.6913 8.57681H21.6418C21.3125 8.5464 20.9806 8.58785 20.6688 8.69826C20.3571 8.80868 20.073 8.98547 19.8363 9.21637C19.5995 9.44728 19.4157 9.72681 19.2975 10.0357C19.1794 10.3446 19.1296 10.6754 19.1518 11.0054V13.9668H23.5376L22.8305 18.5267H19.1518V29.5628H14.223V18.5677H10.2163V14.0077H14.223V10.5238C14.223 6.5684 16.5798 4.37553 20.1868 4.37553C21.3711 4.39234 22.5526 4.49507 23.722 4.68293L23.6913 8.57681Z" fill="white"/>
</g>
</svg>
