<svg width="34" height="34" viewBox="0 0 34 34" fill="none" xmlns="http://www.w3.org/2000/svg">
<g id="Group 214">
<path id="Vector" d="M17.0819 13.7415C16.4365 13.7395 15.8051 13.9292 15.2676 14.2865C14.7302 14.6437 14.3109 15.1525 14.063 15.7483C13.8151 16.3442 13.7498 17.0002 13.8752 17.6333C14.0006 18.2663 14.3111 18.8479 14.7675 19.3042C15.2238 19.7606 15.8054 20.0711 16.4384 20.1965C17.0715 20.3219 17.7275 20.2566 18.3233 20.0087C18.9192 19.7608 19.428 19.3415 19.7853 18.8041C20.1426 18.2666 20.3322 17.6352 20.3302 16.9899C20.3302 16.1284 19.9879 15.3021 19.3788 14.6929C18.7696 14.0837 17.9434 13.7415 17.0819 13.7415Z" fill="white"/>
<path id="Vector_2" d="M21.1092 8.62796H12.9115C11.7837 8.62796 10.702 9.07601 9.90453 9.87351C9.10703 10.671 8.65898 11.7527 8.65898 12.8805V21.0782C8.65898 22.206 9.10703 23.2876 9.90453 24.0851C10.702 24.8827 11.7837 25.3307 12.9115 25.3307H21.1092C22.237 25.3307 23.3187 24.8827 24.1162 24.0851C24.9137 23.2876 25.3617 22.206 25.3617 21.0782V12.8805C25.3617 11.7527 24.9137 10.671 24.1162 9.87351C23.3187 9.07601 22.237 8.62796 21.1092 8.62796ZM17.0821 22.0721C16.0687 22.0721 15.0782 21.7716 14.2356 21.2087C13.393 20.6457 12.7363 19.8455 12.3486 18.9093C11.9608 17.9731 11.8593 16.9429 12.057 15.949C12.2547 14.9552 12.7427 14.0423 13.4592 13.3257C14.1757 12.6092 15.0887 12.1212 16.0825 11.9235C17.0764 11.7258 18.1066 11.8273 19.0428 12.2151C19.979 12.6029 20.7792 13.2596 21.3422 14.1021C21.9051 14.9447 22.2056 15.9352 22.2056 16.9486C22.2056 18.3074 21.6658 19.6106 20.705 20.5715C19.7441 21.5323 18.4409 22.0721 17.0821 22.0721ZM22.4516 12.7883C22.2124 12.7883 21.9786 12.7174 21.7798 12.5845C21.5809 12.4516 21.426 12.2628 21.3344 12.0419C21.2429 11.8209 21.219 11.5778 21.2656 11.3432C21.3123 11.1087 21.4274 10.8932 21.5966 10.7241C21.7657 10.555 21.9811 10.4398 22.2157 10.3932C22.4502 10.3465 22.6933 10.3705 22.9143 10.462C23.1352 10.5536 23.3241 10.7085 23.4569 10.9074C23.5898 11.1062 23.6607 11.34 23.6607 11.5791C23.6621 11.7383 23.6317 11.8961 23.5715 12.0434C23.5112 12.1908 23.4222 12.3246 23.3096 12.4372C23.1971 12.5497 23.0632 12.6387 22.9159 12.699C22.7686 12.7593 22.6107 12.7896 22.4516 12.7883Z" fill="white"/>
<path id="Vector_3" d="M16.9999 3.0904e-06C13.6372 3.7013e-06 10.3501 0.997306 7.55421 2.86573C4.75837 4.73416 2.57945 7.38977 1.29307 10.4967C0.00669103 13.6036 -0.329371 17.0222 0.327405 20.3202C0.984181 23.6181 2.60429 26.6472 4.98279 29.0243C7.3613 31.4013 10.3914 33.0196 13.6897 33.6744C16.988 34.3292 20.4065 33.9911 23.5126 32.7029C26.6187 31.4146 29.2731 29.2341 31.1398 26.4371C33.0066 23.6401 34.0019 20.3524 33.9998 16.9897C33.9998 14.7577 33.56 12.5476 32.7056 10.4856C31.8511 8.42368 30.5988 6.55027 29.02 4.9725C27.4413 3.39473 25.5672 2.14354 23.5047 1.29033C21.4423 0.437125 19.2319 -0.0013431 16.9999 3.0904e-06ZM27.329 21.109C27.329 22.7396 26.6812 24.3035 25.5282 25.4565C24.3752 26.6095 22.8113 27.2572 21.1807 27.2572H12.9831C11.3524 27.2572 9.78861 26.6095 8.63558 25.4565C7.48256 24.3035 6.83481 22.7396 6.83481 21.109V12.9113C6.83481 11.2807 7.48256 9.71688 8.63558 8.56386C9.78861 7.41084 11.3524 6.76305 12.9831 6.76305H21.1807C22.8113 6.76305 24.3752 7.41084 25.5282 8.56386C26.6812 9.71688 27.329 11.2807 27.329 12.9113V21.109Z" fill="white"/>
</g>
</svg>
