<svg width="34" height="34" viewBox="0 0 34 34" fill="none" xmlns="http://www.w3.org/2000/svg">
<g id="Group 216">
<path id="Vector" d="M16.9999 3.0904e-06C13.6372 3.7013e-06 10.3501 0.997306 7.55421 2.86573C4.75837 4.73416 2.57945 7.38977 1.29307 10.4967C0.00669103 13.6036 -0.329371 17.0222 0.327405 20.3202C0.984181 23.6181 2.6043 26.6472 4.98281 29.0243C7.36132 31.4013 10.3914 33.0196 13.6897 33.6744C16.988 34.3292 20.4065 33.9911 23.5126 32.7029C26.6188 31.4146 29.2731 29.2341 31.1398 26.4371C33.0066 23.6401 34.0019 20.3524 33.9998 16.9897C33.9998 14.7577 33.56 12.5476 32.7056 10.4856C31.8511 8.42368 30.5988 6.55027 29.02 4.9725C27.4413 3.39473 25.5672 2.14354 23.5047 1.29033C21.4423 0.437125 19.2319 -0.0013431 16.9999 3.0904e-06ZM28.1795 10.0626C28.1818 10.1881 28.1421 10.3107 28.0668 10.411C27.564 11.1082 26.9635 11.7294 26.2838 12.2555C26.1813 12.3375 26.0173 12.4195 26.0173 12.5629C26.0173 16.2314 25.0746 19.8998 22.4001 22.5538C20.683 24.1632 18.5738 25.2941 16.2831 25.8335C13.9923 26.3729 11.6002 26.3021 9.34536 25.628C8.46961 25.3812 7.62413 25.0375 6.82458 24.6033C6.55816 24.4598 6.29171 24.3061 6.03554 24.1421C5.97406 24.1421 5.92282 24.0396 5.97406 23.9987C6.07521 23.9754 6.18034 23.9754 6.28149 23.9987C7.55856 24.116 8.84583 23.9517 10.0524 23.5171C10.9795 23.2962 11.8359 22.8451 12.5424 22.2054C12.3785 22.2054 12.2145 22.2054 12.0403 22.1337C11.2207 21.9777 10.4551 21.6128 9.81784 21.0743C9.18055 20.5357 8.69308 19.8417 8.40261 19.0596C8.35138 18.9366 8.40264 18.8751 8.5256 18.8956C9.10179 18.973 9.68672 18.9557 10.2573 18.8444C10.0568 18.8032 9.86109 18.7413 9.67327 18.6599C8.9032 18.3487 8.22975 17.8384 7.72195 17.1811C7.21416 16.5239 6.8903 15.7434 6.78359 14.9198C6.76378 14.7461 6.76378 14.5708 6.78359 14.3971C6.78359 14.2742 6.84508 14.2332 6.9578 14.3049C7.50582 14.5868 8.10547 14.7542 8.72027 14.7968C8.52557 14.6431 8.34114 14.4688 8.15669 14.3049C7.45412 13.5947 6.99822 12.6777 6.85617 11.6888C6.71412 10.7 6.89343 9.6917 7.36768 8.81247C7.44965 8.67926 7.51113 8.67926 7.6136 8.81247C9.98105 11.4519 13.2473 13.1142 16.7745 13.4749C16.877 13.4749 16.8872 13.4749 16.8667 13.3724C16.7606 12.7363 16.778 12.0858 16.9179 11.4562C17.0835 10.7935 17.3912 10.1746 17.8197 9.64248C18.2323 9.13001 18.7468 8.70875 19.3307 8.40538C19.9145 8.102 20.5549 7.92313 21.2115 7.88001C21.8898 7.8307 22.5702 7.93944 23.1994 8.19767C23.6687 8.39085 24.1045 8.65718 24.4905 8.98671C24.5708 9.06018 24.6462 9.13889 24.716 9.22238C24.7436 9.23964 24.7756 9.24877 24.8082 9.24877C24.8408 9.24877 24.8728 9.23964 24.9004 9.22238C25.8286 8.99584 26.7239 8.65147 27.5647 8.19767C27.6041 8.18172 27.6482 8.18172 27.6876 8.19767C27.6876 8.19767 27.6876 8.27964 27.6876 8.32063C27.5283 8.81674 27.2782 9.2789 26.9498 9.68351C26.7346 9.93969 26.2018 10.5954 25.8432 10.6569C26.6155 10.5429 27.3698 10.3293 28.0873 10.0216C28.1795 10.0216 28.1795 9.96013 28.1795 10.0216V10.0626Z" fill="white"/>
</g>
</svg>
