<svg width="19" height="19" viewBox="0 0 19 19" fill="none" xmlns="http://www.w3.org/2000/svg">
<g id="cart3">
<path id="Vector (Stroke)" stroke="#FFFFFF"
  stroke-width="1" fill-rule="evenodd" clip-rule="evenodd" d="M0 1.78125C0 1.45333 0.265831 1.1875 0.59375 1.1875H2.375C2.64745 1.1875 2.88494 1.37293 2.95102 1.63724L3.43234 3.5625H17.2188C17.3966 3.5625 17.5651 3.64225 17.6779 3.77982C17.7907 3.91738 17.8359 4.09826 17.801 4.27269L16.6135 10.2102C16.5601 10.4768 16.3325 10.6731 16.061 10.6868L4.90226 11.2464L5.24277 13.0625H15.4375C15.7654 13.0625 16.0312 13.3283 16.0312 13.6562C16.0312 13.9842 15.7654 14.25 15.4375 14.25H14.25H5.9375H4.75C4.46428 14.25 4.21907 14.0465 4.16642 13.7657L2.38843 4.28308L1.91141 2.375H0.59375C0.265831 2.375 0 2.10917 0 1.78125ZM3.68417 4.75L4.6814 10.0685L15.5397 9.52391L16.4945 4.75H3.68417ZM5.9375 14.25C4.62582 14.25 3.5625 15.3133 3.5625 16.625C3.5625 17.9367 4.62582 19 5.9375 19C7.24918 19 8.3125 17.9367 8.3125 16.625C8.3125 15.3133 7.24918 14.25 5.9375 14.25ZM14.25 14.25C12.9383 14.25 11.875 15.3133 11.875 16.625C11.875 17.9367 12.9383 19 14.25 19C15.5617 19 16.625 17.9367 16.625 16.625C16.625 15.3133 15.5617 14.25 14.25 14.25ZM5.9375 15.4375C5.28166 15.4375 4.75 15.9692 4.75 16.625C4.75 17.2808 5.28166 17.8125 5.9375 17.8125C6.59334 17.8125 7.125 17.2808 7.125 16.625C7.125 15.9692 6.59334 15.4375 5.9375 15.4375ZM14.25 15.4375C13.5942 15.4375 13.0625 15.9692 13.0625 16.625C13.0625 17.2808 13.5942 17.8125 14.25 17.8125C14.9058 17.8125 15.4375 17.2808 15.4375 16.625C15.4375 15.9692 14.9058 15.4375 14.25 15.4375Z" fill="#FFFFFF"/>
</g>
</svg>
