<svg width="46" height="46" viewBox="0 0 46 46" fill="none" xmlns="http://www.w3.org/2000/svg">
<g id="Group 225" opacity="0.3">
<path id="arrow" fill-rule="evenodd" clip-rule="evenodd" d="M34.3184 23C34.3184 23.7832 33.6748 24.4181 32.8809 24.4181L16.2263 24.4181L22.3974 30.5056C22.9587 31.0594 22.9587 31.9572 22.3974 32.511C21.836 33.0648 20.9258 33.0648 20.3644 32.511L11.7394 24.0028C11.178 23.449 11.178 22.5511 11.7394 21.9973L20.3644 13.4891C20.9258 12.9353 21.836 12.9353 22.3974 13.4891C22.9587 14.0428 22.9587 14.9407 22.3974 15.4945L16.2263 21.582H32.8809C33.6748 21.582 34.3184 22.2169 34.3184 23Z" fill="#FF8B2B"/>
<path id="circle-16" fill-rule="evenodd" clip-rule="evenodd" d="M23 43.125C11.8852 43.125 2.87497 34.1148 2.87497 23C2.87497 11.8853 11.8852 2.875 23 2.875C34.1147 2.875 43.125 11.8853 43.125 23C43.125 34.1148 34.1147 43.125 23 43.125ZM23 46C10.2974 46 -3.05505e-05 35.7026 -3.05505e-05 23C-3.05505e-05 10.2975 10.2974 0 23 0C35.7025 0 46 10.2975 46 23C46 35.7026 35.7025 46 23 46Z" fill="#FF8B2B"/>
</g>
</svg>
