<svg width="110" height="110" viewBox="0 0 110 110" fill="none" xmlns="http://www.w3.org/2000/svg">
<g id="Vector">
<path d="M55 110C24.6669 110 0 85.3138 0 54.9939C0 24.6739 24.6889 0 55 0C85.3111 0 110 24.6861 110 54.9939C110 85.3016 85.3331 110 55 110ZM55 2.0629C25.8109 2.0629 2.06554 25.808 2.06554 54.9939C2.06554 84.1797 25.8109 107.925 55 107.925C84.1891 107.925 107.937 84.1797 107.937 54.9939C107.937 25.808 84.1891 2.0629 55 2.0629Z" fill="#1B667F"/>
<path d="M55 4.138C26.9573 4.138 4.14087 26.9519 4.14087 54.9939C4.14087 83.0359 26.9573 105.847 55 105.847C83.0427 105.847 105.862 83.0334 105.862 54.9939C105.862 26.9543 83.0451 4.138 55 4.138ZM55 85.3212C49.0012 85.3212 43.137 83.5425 38.1492 80.2101C33.1613 76.8777 29.2738 72.1412 26.9781 66.5996C24.6825 61.0581 24.0818 54.9602 25.2521 49.0773C26.4225 43.1944 29.3112 37.7906 33.553 33.5493C37.7948 29.3079 43.1992 26.4195 49.0828 25.2493C54.9664 24.0791 61.0648 24.6797 66.6071 26.9751C72.1493 29.2705 76.8862 33.1577 80.219 38.145C83.5518 43.1323 85.3307 48.9957 85.3307 54.9939C85.3307 63.0372 82.1351 70.751 76.447 76.4385C70.7589 82.126 63.0442 85.3212 55 85.3212Z" fill="#1B667F"/>
<path d="M55 80.995C49.8569 80.995 44.8293 79.4701 40.553 76.613C36.2766 73.756 32.9436 69.6952 30.9754 64.9441C29.0073 60.193 28.4923 54.9651 29.4957 49.9213C30.499 44.8776 32.9757 40.2447 36.6124 36.6084C40.2491 32.972 44.8826 30.4956 49.9269 29.4924C54.9711 28.4891 60.1997 29.0041 64.9513 30.972C69.7029 32.94 73.7642 36.2726 76.6215 40.5485C79.4789 44.8243 81.004 49.8514 81.004 54.9939C80.9962 61.8874 78.2541 68.4964 73.379 73.3709C68.504 78.2454 61.8943 80.9872 55 80.995ZM55 31.0679C50.2674 31.0679 45.641 32.4711 41.706 35.1002C37.7709 37.7292 34.7039 41.4659 32.8928 45.8378C31.0817 50.2097 30.6078 55.0204 31.5311 59.6616C32.4544 64.3028 34.7334 68.566 38.0799 71.9121C41.4264 75.2583 45.69 77.537 50.3318 78.4602C54.9735 79.3834 59.7847 78.9096 64.1571 77.0986C68.5295 75.2877 72.2667 72.2211 74.896 68.2865C77.5253 64.3519 78.9287 59.726 78.9287 54.9939C78.9216 48.6505 76.3982 42.569 71.9123 38.0835C67.4263 33.5981 61.3441 31.075 55 31.0679Z" fill="#1B667F"/>
<path d="M55 77.363C50.5753 77.363 46.25 76.0511 42.571 73.5931C38.892 71.1352 36.0246 67.6416 34.3314 63.5542C32.6381 59.4668 32.1951 54.9691 33.0583 50.6299C33.9215 46.2907 36.0522 42.305 39.1809 39.1766C42.3096 36.0482 46.2959 33.9178 50.6355 33.0546C54.9752 32.1915 59.4734 32.6345 63.5612 34.3276C67.6491 36.0206 71.1431 38.8878 73.6013 42.5663C76.0595 46.2449 77.3716 50.5697 77.3716 54.9939C77.3651 60.9246 75.006 66.6105 70.8119 70.8041C66.6179 74.9977 60.9313 77.3565 55 77.363ZM55 35.7387C51.1913 35.7387 47.4681 36.868 44.3012 38.9838C41.1344 41.0996 38.6661 44.1068 37.2086 47.6253C35.751 51.1437 35.3697 55.0153 36.1127 58.7504C36.8558 62.4855 38.6898 65.9165 41.383 68.6094C44.0762 71.3023 47.5075 73.1362 51.2431 73.8791C54.9786 74.6221 58.8507 74.2408 62.3695 72.7834C65.8883 71.326 68.8959 68.858 71.0119 65.6915C73.1279 62.525 74.2573 58.8022 74.2573 54.9939C74.2522 49.8887 72.2216 44.9941 68.6113 41.3841C65.001 37.7742 60.1058 35.7439 55 35.7387Z" fill="#1B667F"/>
<path d="M58.8598 76.6077L59.2876 74.8968C59.4546 74.2232 59.4671 73.5206 59.3241 72.8415C59.181 72.1625 58.8862 71.5245 58.4616 70.9756C58.0371 70.4266 57.4938 69.9808 56.8724 69.6715C56.2511 69.3623 55.5679 69.1976 54.8739 69.1898C54.1799 69.1821 53.4931 69.3314 52.865 69.6267C52.2369 69.922 51.6838 70.3555 51.247 70.8948C50.8103 71.4342 50.5012 72.0653 50.343 72.741C50.1848 73.4167 50.1816 74.1195 50.3336 74.7966L50.7149 76.4929L49.0404 76.0236C43.9548 74.6033 39.5604 71.3799 36.6789 66.9557L35.75 65.5259L37.4464 65.3572C37.9936 65.3016 38.5257 65.1449 39.0158 64.8952C39.5562 64.6239 40.0379 64.2486 40.4333 63.791C40.8287 63.3334 41.13 62.8024 41.32 62.2282C41.51 61.6541 41.585 61.0482 41.5407 60.4451C41.4964 59.842 41.3336 59.2535 41.0617 58.7133C40.7898 58.1731 40.4141 57.6918 39.9561 57.2969C39.4981 56.902 38.9667 56.6012 38.3924 56.4117C37.818 56.2222 37.212 56.1478 36.6088 56.1926C36.0057 56.2375 35.4173 56.4007 34.8773 56.673C34.8412 56.6898 34.8062 56.7086 34.7722 56.7293L33.2298 57.7632L33.1564 55.908C32.9569 50.7674 34.5705 45.7203 37.7153 41.6487L38.9815 40.0111L39.5364 42.008C40.0933 43.0974 41.0602 43.9209 42.2244 44.2975C43.3885 44.674 44.6546 44.5727 45.7441 44.0159C46.8336 43.4591 47.6572 42.4923 48.0338 41.3282C48.4104 40.1642 48.3091 38.8983 47.7522 37.8089C47.4902 37.2892 47.1309 36.8245 46.6938 36.4402L45.4178 35.3183L46.9993 34.6951C51.9182 32.7519 57.3779 32.6737 62.3504 34.4751L63.9882 35.069L62.6878 36.2276C61.8599 36.9728 61.3301 37.9926 61.1964 39.0983C61.0626 40.204 61.334 41.3208 61.9602 42.2419C62.5865 43.1629 63.5252 43.826 64.6027 44.1083C65.6802 44.3907 66.8235 44.2732 67.8211 43.7776C68.8291 43.2716 69.6131 42.4093 70.0211 41.3579L70.6542 39.7154L71.7836 41.067C72.8461 42.3361 73.7582 43.7239 74.5018 45.2026C76.1843 48.5453 76.9765 52.2652 76.802 56.0033L76.714 57.79L75.2058 56.8295C74.6122 56.4536 73.9403 56.2187 73.2418 56.1427C72.5433 56.0668 71.8366 56.1518 71.1761 56.3914C70.5155 56.6309 69.9186 57.0185 69.4311 57.5245C68.9437 58.0305 68.5786 58.6414 68.364 59.3104C68.1493 59.9794 68.0908 60.6886 68.1928 61.3837C68.2948 62.0789 68.5548 62.7414 68.9527 63.3205C69.3505 63.8995 69.8758 64.3798 70.4881 64.7244C71.1004 65.0689 71.7836 65.2687 72.4851 65.3083L74.272 65.4036L73.2942 66.9068C71.1936 70.1629 68.2599 72.7976 64.7973 74.5375C63.44 75.2194 62.0164 75.7608 60.5489 76.1531L58.8598 76.6077ZM54.8044 67.1194C56.5609 67.116 58.2482 67.8042 59.5012 69.0351C60.7542 70.2659 61.4721 71.9406 61.4998 73.6967C62.3125 73.4114 63.1062 73.0742 63.8758 72.6873C66.5348 71.3512 68.8558 69.429 70.664 67.0657C69.0298 66.4837 67.6863 65.2889 66.9177 63.7339C66.1491 62.179 66.0157 60.386 66.5458 58.7345C67.0759 57.083 68.228 55.7026 69.758 54.8854C71.2881 54.0682 73.0762 53.8783 74.7438 54.356C74.6479 51.501 73.934 48.7009 72.6513 46.1484C72.209 45.2722 71.7024 44.4299 71.1358 43.6285C70.5151 44.4801 69.6996 45.1706 68.7573 45.6425C67.4409 46.3008 65.9439 46.506 64.4988 46.2261C63.0538 45.9463 61.7416 45.1971 60.7662 44.0949C59.7907 42.9928 59.2066 41.5994 59.1046 40.1313C59.0025 38.6631 59.3882 37.2023 60.2018 35.9758C56.5882 34.9762 52.7635 35.0347 49.1822 36.1444C49.3427 36.3798 49.4889 36.6247 49.6198 36.8777C50.3577 38.3452 50.5294 40.0329 50.1022 41.619C49.6751 43.205 48.6788 44.5782 47.3037 45.4767C45.9285 46.3751 44.2706 46.7359 42.6464 46.4901C41.0222 46.2444 39.5453 45.4093 38.4975 44.1442C36.4996 47.1779 35.3726 50.7016 35.2391 54.3315C36.7233 53.9383 38.2975 54.0671 39.698 54.6963C41.0986 55.3255 42.2402 56.4169 42.9318 57.7876C43.7258 59.3705 43.8589 61.2037 43.302 62.8847C42.7452 64.5657 41.5438 65.9569 39.9618 66.7528C39.7437 66.8621 39.5202 66.96 39.292 67.0461C41.5674 70.0175 44.6442 72.2774 48.1604 73.5598C48.2218 71.8341 48.9493 70.1992 50.1904 68.9983C51.4315 67.7974 53.0896 67.124 54.8167 67.1194H54.8044Z" fill="#1B667F"/>
<path d="M57.1829 40.6808C57.1829 42.5433 56.2051 44.0538 55 44.0538C53.7949 44.0538 52.8195 42.5433 52.8195 40.6808C52.8195 38.8184 53.7973 37.3079 55 37.3079C56.2027 37.3079 57.1829 38.8159 57.1829 40.6808Z" fill="#1B667F"/>
<path d="M42.0933 48.5584C43.8436 49.2012 44.9215 50.6384 44.506 51.77C44.0904 52.9017 42.3353 53.2952 40.5949 52.6499C38.8544 52.0047 37.7667 50.5699 38.1822 49.4383C38.5978 48.3066 40.3456 47.9131 42.0933 48.5584Z" fill="#1B667F"/>
<path d="M67.7771 48.5584C66.0269 49.2012 64.9489 50.6384 65.3644 51.77C65.78 52.9017 67.5351 53.2952 69.2756 52.6499C71.016 52.0047 72.1038 50.5699 71.6882 49.4383C71.2727 48.3066 69.5249 47.9131 67.7771 48.5584Z" fill="#1B667F"/>
<path d="M65.252 65.3132C66.2713 66.8726 66.2811 68.669 65.274 69.329C64.2669 69.9889 62.6218 69.2605 61.6073 67.7036C60.5929 66.1467 60.5758 64.3453 61.5829 63.6854C62.59 63.0255 64.2302 63.7538 65.252 65.3132Z" fill="#1B667F"/>
<path d="M48.3633 67.7036C49.3826 66.1442 49.3924 64.3453 48.3853 63.6854C47.3782 63.0255 45.7331 63.7538 44.7186 65.3132C43.7042 66.8726 43.6871 68.669 44.6942 69.329C45.7013 69.9889 47.3415 69.2605 48.3633 67.7036Z" fill="#1B667F"/>
<path d="M55.0025 63.7416C53.8522 63.7463 52.7124 63.5228 51.6491 63.084C50.5858 62.6451 49.6202 61.9997 48.8082 61.185C46.0924 58.4671 45.4838 54.3706 47.2609 50.7459C48.0078 49.2281 49.236 48 50.754 47.2532C54.3791 45.4788 58.4784 46.0849 61.1918 48.8004C63.9051 51.5159 64.5187 55.6172 62.7415 59.2394C61.9947 60.7573 60.7665 61.9854 59.2485 62.7322C57.9288 63.3886 56.4763 63.7339 55.0025 63.7416ZM55.0025 48.3042C53.8456 48.3158 52.7071 48.5944 51.6756 49.1181C50.5704 49.6611 49.6764 50.555 49.1333 51.66C47.4565 55.0819 48.6273 58.0638 50.2847 59.7258C51.942 61.3879 54.9291 62.5513 58.3513 60.877C59.456 60.3333 60.3498 59.4396 60.8936 58.3351C62.5704 54.9133 61.3971 51.9314 59.7422 50.2693C58.4827 49.0114 56.7753 48.3046 54.9951 48.3042H55.0025Z" fill="#1B667F"/>
<path d="M57.6889 59.6476H52.3111L49.6222 55.0037L52.3111 50.3597H57.6889L60.3778 55.0037L57.6889 59.6476ZM53.5113 57.5725H56.4911L57.9798 54.9939L56.4911 52.4153H53.5113L52.0227 54.9939L53.5113 57.5725Z" fill="#1B667F"/>
<path d="M21.6847 33.7394L22.3789 34.2013C22.5725 34.3551 22.7967 34.4659 23.0364 34.5264C23.1703 34.5462 23.3069 34.5224 23.4262 34.4586C23.5455 34.3948 23.6411 34.2943 23.6989 34.172C23.7649 34.0905 23.8138 33.9966 23.8428 33.8958C23.8718 33.7951 23.8802 33.6895 23.8676 33.5854C23.7736 33.3882 23.6207 33.225 23.43 33.1186L22.924 32.7837C22.7594 32.6731 22.5727 32.5996 22.3768 32.5683C22.1809 32.5371 21.9806 32.5489 21.7898 32.6028L19.7438 33.0917C19.434 33.1754 19.1137 33.214 18.7929 33.2065C18.3756 33.1821 17.9735 33.0416 17.6318 32.8008L17.0158 32.3926C16.6584 32.1429 16.4135 31.7629 16.3338 31.3343C16.2213 30.6231 16.6711 29.8678 16.852 29.599C17.1516 29.0736 17.6474 28.6886 18.2306 28.5284C18.4855 28.4813 18.7474 28.4873 18.9998 28.5462C19.2522 28.6051 19.4896 28.7155 19.6973 28.8706L20.4796 29.3912L19.646 30.6475L19.0055 30.2247C18.9216 30.1488 18.8229 30.091 18.7157 30.0549C18.6085 30.0187 18.495 30.005 18.3822 30.0145C18.2873 30.0305 18.1969 30.0667 18.1172 30.1207C18.0375 30.1747 17.9703 30.2451 17.9202 30.3273C17.8021 30.4906 17.7474 30.6913 17.7662 30.8919C17.7885 30.9781 17.8287 31.0586 17.8844 31.1281C17.94 31.1976 18.0097 31.2546 18.0889 31.2952L18.4384 31.5396C18.5573 31.6259 18.6959 31.6809 18.8415 31.6997C18.9871 31.7185 19.1351 31.7004 19.272 31.6472L21.3082 31.1412C21.9731 30.9799 22.6942 30.8259 23.5082 31.3661L24.3882 31.9503C24.6151 32.0785 24.8117 32.254 24.9647 32.4648C25.1178 32.6757 25.2238 32.917 25.2756 33.1723C25.4027 33.8445 25.124 34.3578 24.816 34.8222C24.5273 35.2912 24.1003 35.6592 23.5938 35.8756C23.2967 35.9896 22.9758 36.027 22.6605 35.9843C22.3452 35.9415 22.0458 35.8201 21.7898 35.6312L20.8291 34.9932L21.6847 33.7394Z" fill="#FFFFFF"/>
<path d="M27.0062 31.5836L20.2742 25.2288L21.3106 24.1338L24.1682 26.837L24.1951 26.8077L22.4107 22.9704L23.4667 21.8558L25.4222 26.1747L30.3722 28.0493L29.3162 29.1639L24.838 27.3894L24.8013 27.4261L28.0524 30.5008L27.0062 31.5836Z" fill="#FFFFFF"/>
<path d="M34.1171 25.1139L32.8949 23.8918L31.5969 24.8695L32.4035 26.3971L31.152 27.3283L26.9964 18.8739L28.4851 17.7667L35.3882 24.1851L34.1171 25.1139ZM31.9733 22.963L29.2673 20.3722L29.2453 20.3869L30.9564 23.7232L31.9733 22.963Z" fill="#FFFFFF"/>
<path d="M37.2998 23.1414L33.5818 16.0925L32.142 16.8526L31.5358 15.7063L35.728 13.5065L36.3318 14.6553L34.9164 15.3885L38.6344 22.4375L37.2998 23.1414Z" fill="#FFFFFF"/>
<path d="M38.4096 12.3773L42.064 11.1112L42.4869 12.3333L40.26 13.1057L40.9933 15.2077L42.7216 14.6113L43.1469 15.8334L41.4211 16.4322L42.4526 19.4092L44.8678 18.5733L45.2931 19.7954L41.4504 21.1274L38.4096 12.3773Z" fill="#FFFFFF"/>
<path d="M45.1807 10.3071L47.9356 9.83778C48.16 9.79023 48.3919 9.79137 48.6159 9.84113C48.8398 9.89088 49.0504 9.98811 49.2336 10.1262C49.6487 10.4786 49.9114 10.9778 49.9669 11.5194L50.094 12.2746C50.1582 12.5717 50.1422 12.8804 50.0476 13.1692C49.9988 13.3122 49.9169 13.4417 49.8086 13.547C49.7003 13.6524 49.5686 13.7306 49.4242 13.7753V13.7998C49.6103 13.8119 49.7907 13.8689 49.9499 13.966C50.1091 14.063 50.2424 14.1972 50.3384 14.3571C50.5159 14.6504 50.6269 14.9792 50.6636 15.3201L50.9251 16.8355C51.012 17.2421 50.9858 17.6647 50.8493 18.0575C50.6049 18.7052 50.116 18.869 49.6271 18.9521L46.7427 19.4409L45.1807 10.3071ZM48.004 13.465C48.1102 13.4511 48.212 13.4141 48.3024 13.3567C48.3928 13.2993 48.4695 13.2228 48.5271 13.1326C48.6149 12.9215 48.6354 12.6884 48.5858 12.4653L48.4831 11.864C48.4567 11.6736 48.3846 11.4925 48.2729 11.3361C48.1861 11.2659 48.084 11.2172 47.9748 11.1939C47.8657 11.1705 47.7526 11.1732 47.6447 11.2017L46.8869 11.3312L47.2731 13.5896L48.004 13.465ZM48.8742 17.7618C48.9878 17.7624 49.0986 17.727 49.1909 17.6607C49.2831 17.5944 49.3519 17.5006 49.3876 17.3927C49.4242 17.2779 49.4364 17.1165 49.3362 16.5422L49.2042 15.7576C49.104 15.1832 49.0062 14.9999 48.9109 14.9094C48.8082 14.823 48.6855 14.7636 48.554 14.7367C48.4225 14.7098 48.2864 14.7163 48.158 14.7555L47.4931 14.8679L48.0113 17.9084L48.8742 17.7618Z" fill="#FFFFFF"/>
<path d="M57.4493 16.5177C57.4493 17.0481 57.42 17.6176 56.8211 18.1431C56.3317 18.4957 55.7438 18.6854 55.1405 18.6854C54.5373 18.6854 53.9494 18.4957 53.46 18.1431C52.866 17.6127 52.844 17.0432 52.844 16.5128L52.8611 11.3263C52.8611 10.7984 52.8929 10.2289 53.4869 9.70094C53.9766 9.34903 54.5644 9.15971 55.1674 9.15971C55.7705 9.15971 56.3583 9.34903 56.848 9.70094C57.442 10.2313 57.4664 10.8008 57.4664 11.3288L57.4493 16.5177ZM54.3522 16.4566C54.3334 16.6822 54.3837 16.9081 54.4964 17.1043C54.5798 17.1924 54.6803 17.2625 54.7916 17.3104C54.903 17.3583 55.023 17.383 55.1442 17.383C55.2655 17.383 55.3854 17.3583 55.4968 17.3104C55.6082 17.2625 55.7086 17.1924 55.792 17.1043C55.9073 16.909 55.9594 16.6827 55.9411 16.4566L55.9558 11.3752C55.9763 11.1498 55.9268 10.9237 55.814 10.7275C55.7304 10.6394 55.6298 10.5692 55.5182 10.5213C55.4066 10.4734 55.2864 10.4487 55.165 10.4487C55.0435 10.4487 54.9234 10.4734 54.8118 10.5213C54.7002 10.5692 54.5996 10.6394 54.516 10.7275C54.4029 10.9236 54.3517 11.1494 54.3693 11.3752L54.3522 16.4566Z" fill="#FFFFFF"/>
<path d="M62.5142 19.3163L62.5558 17.5883L60.9669 17.2999L60.4047 18.935L58.8671 18.6588L62.1891 9.84758L64.0102 10.1751L64.0493 19.5925L62.5142 19.3163ZM62.6169 16.2831L62.6584 12.5386H62.6315L61.3653 16.0607L62.6169 16.2831Z" fill="#FFFFFF"/>
<path d="M68.3564 21.0614C68.3079 20.6841 68.3655 20.3007 68.5227 19.9542L69.2364 17.9989C69.2971 17.8828 69.3317 17.7549 69.3381 17.6241C69.3444 17.4933 69.3222 17.3626 69.2731 17.2412C69.162 17.0841 69.0008 16.9695 68.816 16.9161L68.2562 16.7133L66.8653 20.514L65.45 19.9958L68.6278 11.3019L70.9647 12.1549C71.7346 12.436 72.1282 12.8612 72.2602 13.2328C72.3793 13.6893 72.351 14.1717 72.1796 14.6113L71.8153 15.6061C71.7555 15.8018 71.6575 15.9838 71.527 16.1415C71.3966 16.2992 71.2362 16.4296 71.0551 16.525C70.8045 16.644 70.5209 16.6742 70.2509 16.6106L70.2362 16.6473C70.4106 16.7801 70.5569 16.9462 70.6664 17.1361C70.7694 17.3321 70.8255 17.5494 70.8301 17.7709C70.8348 17.9923 70.788 18.2118 70.6933 18.412L70.0113 20.2769C69.7253 21.059 69.6887 21.3157 69.982 21.5918L69.96 21.6529L68.3564 21.0614ZM69.366 15.6427C69.543 15.7253 69.7419 15.7485 69.9331 15.7087C70.0358 15.6646 70.1271 15.5977 70.2 15.513C70.2728 15.4283 70.3253 15.328 70.3535 15.2199L70.6811 14.3253C70.7786 14.1321 70.8136 13.9135 70.7813 13.6996C70.7552 13.6097 70.7057 13.5285 70.6378 13.464C70.57 13.3996 70.4862 13.3544 70.3951 13.333L69.6007 13.0421L68.7329 15.4154L69.366 15.6427Z" fill="#FFFFFF"/>
<path d="M75.9195 14.2862L78.3836 15.7087C78.5879 15.8134 78.7694 15.9576 78.9175 16.133C79.0656 16.3084 79.1774 16.5114 79.2464 16.7304C79.4371 17.405 79.1389 17.9207 78.8602 18.4022L76.384 22.6868C76.1151 23.1561 75.7142 23.7647 74.9638 23.926C74.7334 23.9721 74.4962 23.9721 74.2658 23.9259C74.0355 23.8798 73.8166 23.7884 73.6218 23.6572L71.2849 22.3055L75.9195 14.2862ZM73.8589 22.352C73.9709 22.4263 74.0993 22.4722 74.233 22.4859C74.3667 22.4995 74.5018 22.4804 74.6265 22.4302C74.8554 22.2595 75.0412 22.0377 75.1691 21.7825L77.4351 17.8718C77.5945 17.6523 77.6801 17.3878 77.6796 17.1165C77.6607 17.0009 77.6129 16.8919 77.5407 16.7996C77.4685 16.7073 77.3741 16.6348 77.2664 16.5886L76.5673 16.1829L73.2087 21.9927L73.8589 22.352Z" fill="#FFFFFF"/>
<path d="M82.4682 18.4413L83.6611 19.3628L77.99 26.6953L76.7971 25.7714L82.4682 18.4413Z" fill="#FFFFFF"/>
<path d="M81.6004 30.0364L84.4042 25.0821L84.3578 25.0552L83.6587 25.8349L80.5078 28.9195L79.4518 27.844L86.0713 21.3547L87.2398 22.545L84.5876 27.3136L84.6169 27.343L85.2598 26.6097L88.2958 23.6327L89.3542 24.713L82.7395 31.1925L81.6004 30.0364Z" fill="#FFFFFF"/>
<path d="M88.7138 32.8595L88.2249 32.1604L89.2955 31.4272L90.6253 33.3703L86.3769 36.274L85.6827 35.2572L86.416 34.7684L86.3915 34.7366C86.1295 34.8159 85.853 34.8351 85.5825 34.7928C85.4103 34.7457 85.2491 34.6651 85.1082 34.5557C84.9673 34.4462 84.8493 34.31 84.7611 34.1549C84.4311 33.666 84.2991 33.2676 84.4384 32.7226C84.5928 32.191 84.942 31.7372 85.4162 31.4516L89.7624 28.482C90.3638 28.0713 90.904 27.8783 91.586 28.1007C92.1007 28.2809 92.5381 28.632 92.8253 29.0954C93.2213 29.6723 93.4389 30.2955 93.346 30.8381C93.2922 31.1803 93.0698 31.7009 92.3829 32.1702L91.564 32.7299L90.7109 31.4859L91.4442 30.9774C91.6655 30.861 91.8348 30.6656 91.9185 30.43C91.9343 30.3299 91.9292 30.2276 91.9036 30.1296C91.8779 30.0316 91.8322 29.9399 91.7693 29.8605C91.7169 29.7627 91.6423 29.6786 91.5514 29.6149C91.4606 29.5512 91.356 29.5098 91.2462 29.4938C91.0098 29.4969 90.7821 29.5835 90.6033 29.7383L86.4111 32.6053C86.206 32.7198 86.0368 32.889 85.9222 33.0941C85.8786 33.2171 85.8677 33.3493 85.8904 33.4778C85.9131 33.6063 85.9687 33.7267 86.0518 33.8274C86.1073 33.9172 86.1845 33.9917 86.2763 34.0438C86.3682 34.0959 86.4717 34.124 86.5773 34.1255C86.8062 34.114 87.025 34.0282 87.2007 33.8811L88.7138 32.8595Z" fill="#FFFFFF"/>
<path d="M19.602 58.9461L20.2302 62.7615L18.9518 62.9717L18.568 60.6473L16.368 61.009L16.6662 62.8128L15.3853 63.023L15.0896 61.2217L11.9778 61.7349L12.3958 64.2549L11.1149 64.4651L10.4549 60.4566L19.602 58.9461Z" fill="#FFFFFF"/>
<path d="M12.8529 70.2968L14.9404 68.7106L15.4024 68.3855L15.3878 68.3342L14.8207 68.3586H12.1978L11.6893 66.8579L16.9913 66.9606L20.5553 64.162L21.0638 65.6652L18.9836 67.1097L19.0007 67.161L21.5307 67.0437L22.0415 68.5468L17.5218 68.4857L13.3662 71.7951L12.8529 70.2968Z" fill="#FFFFFF"/>
<path d="M15.1336 75.4736L22.154 71.6974L21.3815 70.2627L22.5256 69.6492L24.772 73.8238L23.628 74.4373L22.8702 73.027L15.8498 76.8033L15.1336 75.4736Z" fill="#FFFFFF"/>
<path d="M20.0225 83.0065C20.1823 82.6605 20.4364 82.3665 20.7558 82.1584L22.4033 80.8924C22.5167 80.8257 22.6146 80.7356 22.6905 80.6281C22.7663 80.5206 22.8184 80.3982 22.8433 80.2691C22.8319 80.0771 22.7561 79.8945 22.6282 79.7509L22.264 79.2792L19.0544 81.7478L18.1329 80.5502L25.4662 74.9066L26.9818 76.8766C27.4707 77.5292 27.588 78.0986 27.5 78.4848C27.3564 78.934 27.074 79.3259 26.6933 79.6043L25.8524 80.2495C25.5386 80.5189 25.1306 80.6525 24.7182 80.6211C24.4398 80.5889 24.1809 80.462 23.9849 80.2617L23.9531 80.2862C24.0319 80.4884 24.0676 80.7049 24.0582 80.9217C24.0409 81.1426 23.9722 81.3564 23.8577 81.5461C23.7431 81.7358 23.5857 81.8961 23.3982 82.0142L21.824 83.2241C21.1616 83.7325 20.9953 83.928 21.0907 84.3191L21.0369 84.3582L20.0225 83.0065ZM23.7796 78.9688C23.8848 79.1332 24.0411 79.2586 24.2244 79.3256C24.3353 79.3446 24.449 79.3372 24.5564 79.3041C24.6639 79.271 24.762 79.2131 24.8429 79.135L25.5982 78.5533C25.9135 78.3089 25.9893 78.172 26.0211 78.0816C26.0472 77.9913 26.0488 77.8956 26.0256 77.8045C26.0024 77.7134 25.9553 77.6302 25.8891 77.5634L25.3733 76.8913L23.3689 78.4335L23.7796 78.9688Z" fill="#FFFFFF"/>
<path d="M29.326 79.6312L32.1469 82.2757L31.2596 83.2216L29.5484 81.6085L28.0256 83.2314L29.3578 84.4828L28.4704 85.4287L27.1382 84.1798L24.9822 86.4773L26.8473 88.2249L25.9575 89.1708L22.9949 86.3917L29.326 79.6312Z" fill="#FFFFFF"/>
<path d="M30.5091 92.5071L33.3007 86.0251L33.2444 85.9884L32.6578 87.0737L29.5998 91.9425L28.3238 91.1383L33.2518 83.2999L35.2685 84.5659L32.824 90.102L32.8704 90.1289L36.8035 85.5387L38.8202 86.8048L33.902 94.631L32.626 93.8293L35.6815 88.9679L36.4149 87.9682L36.3587 87.934L31.7313 93.2574L30.5091 92.5071Z" fill="#FFFFFF"/>
<path d="M40.3358 87.3939L43.9389 88.7919L43.4695 90.014L41.2695 89.161L40.4653 91.2336L42.1765 91.8936L41.7071 93.1157L39.996 92.4557L38.8569 95.3887L41.2378 96.3126L40.7709 97.52L36.982 96.0535L40.3358 87.3939Z" fill="#FFFFFF"/>
<path d="M50.1209 96.3909L50.0402 97.2219C49.9902 97.4645 49.9969 97.7155 50.0598 97.9551C50.1046 98.0826 50.189 98.1925 50.3007 98.2686C50.4124 98.3447 50.5456 98.383 50.6807 98.378C50.7841 98.3972 50.8903 98.3957 50.9931 98.3735C51.096 98.3512 51.1934 98.3087 51.2796 98.2484C51.4086 98.0741 51.4803 97.864 51.4849 97.6472L51.546 97.041C51.5661 96.8438 51.5436 96.6447 51.4799 96.457C51.4162 96.2693 51.3129 96.0976 51.1769 95.9534L49.7762 94.3793C49.5572 94.1443 49.3729 93.8793 49.2287 93.5923C49.0545 93.2101 48.991 92.7867 49.0453 92.3702L49.1187 91.6369C49.1709 91.2054 49.3914 90.8119 49.7322 90.542C50.3091 90.1069 51.1793 90.1533 51.5069 90.1875C51.8065 90.1954 52.1016 90.2626 52.3751 90.3851C52.6487 90.5076 52.8953 90.683 53.1007 90.9012C53.2629 91.1058 53.3809 91.3416 53.4474 91.594C53.5139 91.8464 53.5273 92.1099 53.4869 92.3678L53.394 93.3039L51.8931 93.1523L51.9689 92.3897C51.995 92.2799 51.9987 92.166 51.9798 92.0547C51.9609 91.9434 51.9198 91.8371 51.8589 91.7421C51.8017 91.6651 51.7282 91.6018 51.6437 91.5566C51.5592 91.5114 51.4657 91.4854 51.37 91.4805C51.1699 91.4518 50.9662 91.498 50.798 91.6101C50.7327 91.6695 50.6807 91.742 50.6453 91.8228C50.61 91.9037 50.592 91.9911 50.5927 92.0794L50.5511 92.5022C50.5303 92.6474 50.5462 92.7956 50.5975 92.9331C50.6487 93.0705 50.7336 93.193 50.8444 93.2892L52.2451 94.8486C52.6998 95.3594 53.174 95.9265 53.0787 96.8993L52.9711 97.9527C52.9651 98.2134 52.9025 98.4698 52.7877 98.704C52.6729 98.9382 52.5087 99.1447 52.3062 99.3092C51.7709 99.7345 51.1891 99.7296 50.6367 99.6734C50.0902 99.6418 49.5668 99.442 49.1382 99.1015C48.8981 98.8921 48.7146 98.6256 48.6048 98.3265C48.495 98.0274 48.4624 97.7055 48.51 97.3905L48.6225 96.2442L50.1209 96.3909Z" fill="#FFFFFF"/>
<path d="M55.8849 99.7931L55.2713 90.5542L57.794 90.3855C58.3236 90.3456 58.8485 90.51 59.2607 90.845C59.7275 91.2654 59.7764 91.8227 59.8082 92.2822L59.8987 93.6656C59.928 94.1031 59.9573 94.7484 59.5516 95.2274C59.3316 95.4938 58.9086 95.7334 58.2511 95.8043C57.8761 95.8361 57.4992 95.8361 57.1242 95.8043L57.3687 99.6856L55.8849 99.7931ZM57.8404 94.4648C58.0507 94.4502 58.2487 94.438 58.3489 94.152C58.399 93.9297 58.4065 93.7 58.3709 93.475L58.3049 92.4973C58.3139 92.2841 58.253 92.0738 58.1313 91.8984C58.0534 91.8237 57.9592 91.7681 57.8561 91.7358C57.7531 91.7036 57.644 91.6957 57.5373 91.7127L56.8504 91.7591L57.0338 94.5308L57.8404 94.4648Z" fill="#FFFFFF"/>
<path d="M67.2076 95.9973C67.3298 96.513 67.4373 97.0703 66.9827 97.7254C66.5894 98.1829 66.0622 98.5051 65.4756 98.6463C64.889 98.7876 64.2729 98.7407 63.7145 98.5124C63.0105 98.136 62.8516 97.5885 62.7367 97.0752L61.5145 92.0304C61.3898 91.5172 61.27 90.9575 61.7393 90.3049C62.1323 89.847 62.6596 89.5246 63.2463 89.3833C63.8329 89.242 64.4492 89.2891 65.0075 89.5178C65.7091 89.8918 65.868 90.4393 65.9853 90.9525L67.2076 95.9973ZM64.1813 96.6719C64.2181 96.8953 64.3201 97.1028 64.4747 97.2683C64.5735 97.3411 64.688 97.3897 64.809 97.4101C64.93 97.4305 65.0542 97.4221 65.1713 97.3856C65.2926 97.3658 65.4072 97.317 65.5055 97.2434C65.6038 97.1698 65.6829 97.0735 65.736 96.9628C65.8032 96.7463 65.8032 96.5145 65.736 96.298L64.548 91.3583C64.5117 91.1348 64.4096 90.9271 64.2547 90.7619C64.153 90.6956 64.0388 90.6507 63.9191 90.63C63.7994 90.6093 63.6768 90.6133 63.5587 90.6417C63.4406 90.67 63.3296 90.7222 63.2323 90.795C63.1351 90.8678 63.0538 90.9597 62.9933 91.065C62.9262 91.2815 62.9262 91.5133 62.9933 91.7298L64.1813 96.6719Z" fill="#FFFFFF"/>
<path d="M73.5973 95.704C73.3013 95.4643 73.0779 95.1469 72.952 94.7875L72.1233 92.881C72.0878 92.7555 72.0258 92.639 71.9415 92.5395C71.8572 92.44 71.7524 92.3598 71.6344 92.3042C71.4454 92.2671 71.2494 92.2965 71.0796 92.3873L70.532 92.6317L72.1478 96.3468L70.7642 96.9481L67.0682 88.4497L69.3513 87.4574C70.1018 87.1299 70.6811 87.1665 71.0331 87.3449C71.435 87.5945 71.7473 87.965 71.9253 88.4033L72.3482 89.381C72.5332 89.7508 72.5639 90.1788 72.4338 90.5713C72.3341 90.8312 72.1487 91.0494 71.9082 91.1897L71.9253 91.2263C72.1408 91.1976 72.36 91.2151 72.5682 91.2776C72.7779 91.3492 72.9682 91.4683 73.1243 91.6256C73.2803 91.7829 73.3979 91.9742 73.4678 92.1844L74.2598 94.0078C74.5922 94.7703 74.7487 94.9854 75.1447 94.9854L75.1716 95.0465L73.5973 95.704ZM70.5907 91.0796C70.7755 91.017 70.9356 90.8972 71.0478 90.7375C71.0918 90.6339 71.1113 90.5217 71.105 90.4093C71.0986 90.297 71.0665 90.1877 71.0111 90.0898L70.6298 89.2147C70.5673 89.0079 70.4427 88.8253 70.2729 88.6917C70.1915 88.6447 70.0992 88.62 70.0052 88.62C69.9113 88.62 69.8189 88.6447 69.7376 88.6917L68.9627 89.0314L69.9698 91.3485L70.5907 91.0796Z" fill="#FFFFFF"/>
<path d="M78.408 93.1303L74.1253 86.4186L72.7516 87.2936L72.0549 86.2011L76.0467 83.6518L76.7433 84.7468L75.394 85.6071L79.6791 92.3213L78.408 93.1303Z" fill="#FFFFFF"/>
<path d="M87.8167 85.4336L81.8913 80.1029L80.8011 81.325L79.8233 80.4597L83.0011 76.9328L83.9789 77.8029L82.9058 78.9932L88.8336 84.3215L87.8167 85.4336Z" fill="#FFFFFF"/>
<path d="M83.7711 75.8525L85.8733 72.6066L86.9611 73.313L85.6802 75.2903L87.5478 76.4977L88.5402 74.9652L89.6304 75.6692L88.638 77.2041L91.2829 78.915L92.6713 76.769L93.7615 77.4754L91.5615 80.8973L83.7711 75.8525Z" fill="#FFFFFF"/>
<path d="M96.4529 71.9002L94.7809 71.4603L94.1356 72.9415L95.6022 73.8654L94.9789 75.2976L87.1566 70.0329L87.89 68.3366L97.0689 70.468L96.4529 71.9002ZM93.5195 71.101L89.8847 70.1967V70.2211L93.0233 72.2644L93.5195 71.101Z" fill="#FFFFFF"/>
<path d="M98.6016 65.1054L91.5518 64.6948L91.5371 64.7584L92.7593 64.9417L98.3815 66.1638L98.0638 67.6303L89.0047 65.6749L89.5082 63.3456L95.5435 63.7416L95.5558 63.6903L89.892 61.5614L90.3955 59.2321L99.4547 61.1874L99.1369 62.6539L93.5146 61.4319L92.3291 61.0946L92.3145 61.1606L98.9145 63.6927L98.6016 65.1054Z" fill="#FFFFFF"/>
<path d="M16.7078 45.7647C16.7078 46.1031 16.6074 46.4339 16.4194 46.7152C16.2314 46.9966 15.9641 47.2159 15.6515 47.3454C15.3388 47.4749 14.9948 47.5088 14.6628 47.4428C14.3309 47.3767 14.026 47.2138 13.7867 46.9745C13.5474 46.7352 13.3845 46.4304 13.3184 46.0985C13.2524 45.7666 13.2863 45.4226 13.4158 45.11C13.5453 44.7973 13.7646 44.5301 14.046 44.3421C14.3274 44.1541 14.6582 44.0538 14.9967 44.0538C15.4505 44.0538 15.8857 44.234 16.2066 44.5549C16.5275 44.8758 16.7078 45.3109 16.7078 45.7647Z" fill="#FFFFFF"/>
<path d="M96.7169 45.7647C96.7169 46.1031 96.6165 46.4339 96.4285 46.7152C96.2405 46.9966 95.9732 47.2159 95.6606 47.3454C95.3479 47.4749 95.0039 47.5088 94.6719 47.4428C94.34 47.3767 94.0351 47.2138 93.7958 46.9745C93.5565 46.7352 93.3935 46.4304 93.3275 46.0985C93.2615 45.7666 93.2954 45.4226 93.4249 45.11C93.5544 44.7973 93.7737 44.5301 94.0551 44.3421C94.3365 44.1541 94.6674 44.0538 95.0058 44.0538C95.4596 44.0538 95.8948 44.234 96.2157 44.5549C96.5366 44.8758 96.7169 45.3109 96.7169 45.7647Z" fill="#FFFFFF"/>
</g>
</svg>
