<svg width="46" height="46" viewBox="0 0 46 46" fill="none" xmlns="http://www.w3.org/2000/svg">
<g id="Group 202">
<path id="arrow" fill-rule="evenodd" clip-rule="evenodd" d="M11.6817 23C11.6817 23.7832 12.3253 24.4181 13.1192 24.4181L29.7738 24.4181L23.6028 30.5056C23.0414 31.0594 23.0414 31.9572 23.6028 32.511C24.1641 33.0648 25.0743 33.0648 25.6357 32.511L34.2607 24.0028C34.8221 23.449 34.8221 22.5511 34.2607 21.9973L25.6357 13.4891C25.0743 12.9353 24.1641 12.9353 23.6028 13.4891C23.0414 14.0428 23.0414 14.9407 23.6028 15.4945L29.7738 21.582H13.1192C12.3253 21.582 11.6817 22.2169 11.6817 23Z" fill="#FF8B2B"/>
<path id="circle-16" fill-rule="evenodd" clip-rule="evenodd" d="M23 43.125C34.1148 43.125 43.125 34.1148 43.125 23C43.125 11.8853 34.1148 2.875 23 2.875C11.8853 2.875 2.875 11.8853 2.875 23C2.875 34.1148 11.8853 43.125 23 43.125ZM23 46C35.7026 46 46 35.7026 46 23C46 10.2975 35.7026 0 23 0C10.2975 0 0 10.2975 0 23C0 35.7026 10.2975 46 23 46Z" fill="#FF8B2B"/>
</g>
</svg>
